<?xml version="1.0" encoding="UTF-8"?>
<!-- Generator: Adobe Illustrator 25.2.3, SVG Export Plug-In . SVG Version: 6.00 Build 0)  -->
<svg xmlns="http://www.w3.org/2000/svg" xmlns:xlink="http://www.w3.org/1999/xlink" version="1.1" id="Capa_1" x="0px" y="0px" viewBox="0 0 512 512" style="enable-background:new 0 0 512 512;" xml:space="preserve" width="512" height="512">
<g>
	<g>
		<path style="fill:#000D33;" d="M184.404,470.349c-10.586,27.283-28.936,45.601-40.988,40.921    c-12.05-4.675-13.234-30.578-2.647-57.854c10.586-27.271,28.936-45.596,40.982-40.921    C193.806,417.175,194.99,443.078,184.404,470.349z"/>
		<path style="fill:#FFB200;" d="M165.406,472.868c-3.44,11.209-9.048,19.425-12.527,18.358c-3.48-1.067-3.507-11.019-0.07-22.222    c3.438-11.204,9.048-19.425,12.527-18.358C168.81,451.712,168.841,461.664,165.406,472.868z"/>
	</g>
	<g>
		<path style="fill:#000D33;" d="M434.557,458.146c-10.587,27.277-28.936,45.601-40.982,40.921    c-12.052-4.674-13.239-30.577-2.65-57.854c10.584-27.277,28.933-45.596,40.985-40.921    C443.956,404.966,445.143,430.875,434.557,458.146z"/>
		<path style="fill:#FFB200;" d="M412.773,461.648c-3.44,11.203-9.048,19.419-12.521,18.358c-3.48-1.067-3.513-11.014-0.073-22.228    c3.441-11.203,9.048-19.424,12.525-18.358C416.182,440.492,416.213,450.444,412.773,461.648z"/>
	</g>
	<path style="fill:#FFB200;" d="M305.893,233.312c0,0,12.494,66.679,66.913,42.206l2.211,19.961c0,0-65.754,21.982-72.646-25.702   L305.893,233.312z"/>
	<path style="fill:#000D33;" d="M248.709,315.629c0.447-2.145,98.832-14.431,98.832-14.431l-41.108,105.829   c0,0,58.948-38.633,61.137,8.599l-86.501,7.145l44.607-111.079C325.675,311.691,242.585,344.927,248.709,315.629z"/>
	<g>
		<path style="fill:#FF6688;" d="M415.071,397.393c11.083-46.763,26.599-131.504-1.932-146.555    c-39.802-20.999-96.634,34.102-96.634,34.102l12.24,133.38l-74.344,1.329l27.109-97.53c0,0-114.564-4.803-147.376,48.986    c-32.789,53.789-26.682,97.078-26.682,97.078l267.411-19.318l77.64-5.602C452.502,443.262,454.378,365.212,415.071,397.393z"/>
		<path style="fill:#F50125;" d="M202.767,325.615l92.063-12.086C294.829,313.529,175.367,399.566,202.767,325.615z"/>
		<path style="fill:#F50125;" d="M386.953,268.38c0.01-0.007,0.019-0.012,0.027-0.018c3.287,3.906,4.908,10.032,6.245,14.899    c2.745,9.997,3.319,20.725,3.57,31.044c0.677,27.832-3.243,55.124-7.119,82.594c-0.151,1.071-0.385,2.164-0.458,3.244    c1.98-29.458,3.909-59.082,0.773-88.554c-0.237-2.226-0.513-4.447-0.833-6.662c-0.792-5.467-1.777-10.924-3.334-16.231    c-1.201-4.09-2.901-11.245-6.33-14.044C379.766,274.876,386.101,268.951,386.953,268.38z"/>
		<path style="fill:#F50125;" d="M452.502,443.262l-77.64,5.602c16.766-27.014,29.902-43.032,40.209-51.471    C454.378,365.212,452.502,443.262,452.502,443.262z"/>
		<path style="fill:#F50125;" d="M213.767,456.306c1.176-11.536,0.7-23.676-0.224-35.218c-0.906-11.315-2.839-22.596-6.428-33.384    c-2.914-8.759-7.777-17.816-16.233-22.295c-11.556-6.121-24.137-1.791-34.932,3.791c-8.984,4.646-16.779,10.815-24.658,17.079    c4.89-3.887,9.204-8.428,14.215-12.193c15.549-11.681,39.21-22.348,55.647-6.198c10.615,10.43,15.121,26.369,17.961,40.518    c3.187,15.874,4.694,32.176,4.39,48.366C223.507,456.747,214.685,456.339,213.767,456.306z"/>
	</g>
	<g>
		<g>
			<polygon style="fill:#000D33;" points="215.04,334.361 89.529,375.907 51.92,248.648 211.103,175.614    "/>
			<polygon style="fill:#FFFFFF;" points="212.842,332.786 92.185,372.724 54.64,251.15 209.014,178.311    "/>
		</g>
		<g>
			<path style="fill:#FFB200;" d="M188.109,294.736c-6.825,32.968-34.269,55.157-61.292,49.561     c-27.02-5.602-43.392-36.861-36.565-69.829c6.825-32.968,34.269-55.157,61.29-49.561     C178.565,230.503,194.94,261.767,188.109,294.736z"/>
			<path style="fill:#F50125;" d="M143.089,337.729c0,0-11.873-8.785-18.218-1.949c0,0-9.109-25.468-18.542-22.251     c0,0-0.489-10.93-5.694-10.444c0,0,7.49-29.109,0-33.99c0,0,8.458-11.388,4.719-14.8c0,0,18.539-9.433,16.506-18.542     c0,0,8.054,1.045,9.844-3.139c0,0,19.352,8.182,31.879,2.485c0,0,4.714,12.851,13.334,12.036c0,0,0.209,20,6.018,20.659     c0,0-4.39,6.669,0,12.036c0,0-13.664,18.034-8.945,28.299c0,0-9.433,2.111-4.719,10.734     C169.271,318.863,142.438,325.045,143.089,337.729z"/>
			<path style="fill:#FFFFFF;" d="M130.561,273.563c0,3.105-4.113,5.613-9.19,5.613c-5.074,0-9.187-2.508-9.187-5.613     c0-3.1,4.113-5.613,9.187-5.613C126.448,267.95,130.561,270.463,130.561,273.563z"/>
			<path style="fill:#FFFFFF;" d="M141.785,266.816c0,2.245-2.111,4.066-4.717,4.066c-2.608,0-4.719-1.82-4.719-4.066     c0-2.245,2.111-4.066,4.719-4.066C139.674,262.75,141.785,264.571,141.785,266.816z"/>
			<path style="fill:#FFFFFF;" d="M173.178,271.368c0,4.764-5.066,8.623-11.307,8.623c-6.241,0-11.304-3.859-11.304-8.623     c0-4.758,5.063-8.618,11.304-8.618C168.112,262.75,173.178,266.61,173.178,271.368z"/>
			<path style="fill:#FFFFFF;" d="M148.942,306.587c0,4.446-6.772,8.048-15.13,8.048c-8.35,0-15.124-3.602-15.124-8.048     c0-4.451,6.775-8.054,15.124-8.054C142.17,298.533,148.942,302.136,148.942,306.587z"/>
			<path style="fill:#FFFFFF;" d="M161.871,307c0,2.066-1.874,3.747-4.186,3.747c-2.317,0-4.189-1.681-4.189-3.747     c0-2.072,1.871-3.753,4.189-3.753C159.997,303.247,161.871,304.928,161.871,307z"/>
			<path style="fill:#FFFFFF;" d="M120.316,292.596c0,2.022-2.55,3.658-5.694,3.658c-3.147,0-5.691-1.636-5.691-3.658     c0-2.022,2.544-3.664,5.691-3.664C117.766,288.933,120.316,290.575,120.316,292.596z"/>
			<path style="fill:#FFFFFF;" d="M145.524,322.929c0,2.965-3.784,5.367-8.458,5.367c-4.669,0-8.456-2.401-8.456-5.367     c0-2.966,3.787-5.367,8.456-5.367C141.74,317.561,145.524,319.963,145.524,322.929z"/>
			<path style="fill:#FFFFFF;" d="M166.668,250.553c0,4.133-6.007,7.484-13.418,7.484s-13.418-3.351-13.418-7.484     c0-4.133,6.007-7.478,13.418-7.478S166.668,246.42,166.668,250.553z"/>
			<path style="fill:#FFFFFF;" d="M129.42,258.523c0,1.977-2.656,3.58-5.928,3.58c-3.281,0-5.942-1.603-5.942-3.58     s2.661-3.58,5.942-3.58C126.764,254.943,129.42,256.545,129.42,258.523z"/>
			<path style="fill:#FFFFFF;" d="M163.58,289.586c0,3.686-4.37,6.669-9.762,6.669c-5.387,0-9.757-2.982-9.757-6.669     c0-3.68,4.37-6.663,9.757-6.663C159.21,282.923,163.58,285.906,163.58,289.586z"/>
		</g>
		<polygon style="fill:#000D33;" points="206.679,332.685 82.257,373.673 90.551,384.408 209.77,335.941   "/>
		<path style="fill:#F50125;" d="M107.655,379.178c-4.479-1.025-7.512-2.994-9.02-5.85c-1.41-2.675-1.011-5.339-0.69-6.587    L58.923,242.684l3.725-1.173l39.408,125.288l-0.254,0.642c0,0.005-0.765,2.117,0.31,4.108c0.961,1.784,3.119,3.072,6.415,3.826    L107.655,379.178z"/>
		
			<rect x="200.418" y="180.377" transform="matrix(0.9969 -0.079 0.079 0.9969 -19.7125 16.7877)" style="fill:#F50125;" width="3.905" height="154.438"/>
	</g>
	<polygon style="fill:#F50125;" points="423.247,265.984 460.08,255.462 460.08,276.417 426.688,281.79  "/>
	<g>
		<path style="fill:#FFB200;" d="M281.618,194.094l42.312,15.085l-16.127,30.829v70.739L197.33,334.467    c0,0-23.946-86.913,86.586-102.987L281.618,194.094z"/>
		<polygon style="fill:#000D33;" points="311.311,219.291 299.627,242.349 299.806,241.765 286.865,307.52 295.385,241.047     295.416,240.813 295.567,240.461 305.687,216.672   "/>
		<path style="fill:#000D33;" d="M285.078,289.586l-28.464,1.134l31.837-48.461l-36.23,51.722    C252.222,293.982,271.738,295.277,285.078,289.586z"/>
		<path style="fill:#000D33;" d="M283.447,307.966c0,0-55.911,16.174-64.632,5.563c-8.721-10.606,60.08-73.063,60.08-73.063    s-60.991,60.262-58.388,72.253C222.295,320.974,283.447,307.966,283.447,307.966z"/>
	</g>
	<path style="fill:#000D33;" d="M198.372,334.243c-1.581-1.508,105.877-28.304,105.877-28.304l-41.105,105.829   c0,0,57.985-37.198,60.172,10.033l-85.536,5.711l43.686-108.784C281.465,318.729,220.097,355.048,198.372,334.243z"/>
	<g>
		<path style="fill:#F50125;" d="M402.801,269.838l-46.051,11.684c0,0-26.696-46.428,52.018-52.113L402.801,269.838z"/>
		<g>
			<path style="fill:#FFFFFF;" d="M399.855,255.462c0,7.903-7.733,14.314-17.272,14.314c-9.542,0-17.274-6.412-17.274-14.314     c0-7.903,7.732-14.309,17.274-14.309C392.122,241.153,399.855,247.559,399.855,255.462z"/>
			<polygon style="fill:#FFB200;" points="373.728,254.303 389.397,248.352 374.817,256.621    "/>
			<polygon style="fill:#FFB200;" points="372.215,262.348 396.392,251.15 373.399,264.616    "/>
		</g>
	</g>
	<polygon style="fill:#F50125;" points="320.775,304.984 287.189,314.797 282.799,293.004 319.138,290.72  "/>
	<g>
		<path style="fill:#FFBFA5;" d="M291.914,315.953l25.94-5.272c0,0-2.834-37.738-19.86-35.582    C280.971,277.254,291.914,315.953,291.914,315.953z"/>
		<path style="fill:#000D33;" d="M299.131,314.797c-0.009-0.218-0.948-22.34-7.497-30.449l1.519-1.229    c6.953,8.615,7.886,30.215,7.922,31.131L299.131,314.797z"/>
		<path style="fill:#000D33;" d="M306.822,313.071c-0.014-0.296-1.489-29.751-10.308-34.161l0.871-1.748    c9.835,4.92,11.335,34.264,11.393,35.509L306.822,313.071z"/>
		<path style="fill:#000D33;" d="M312.174,312.076c-0.006-0.226-0.338-23.18-7.006-30.624l1.452-1.301    c7.157,7.987,7.542,30.511,7.553,31.466L312.174,312.076z"/>
	</g>
	<g>
		<path style="fill:#FFBFA5;" d="M432.382,287.665l24.521-5.06c0,0-2.681-36.235-18.777-34.169    C422.033,250.508,432.382,287.665,432.382,287.665z"/>
		<path style="fill:#000D33;" d="M439.999,286.377l-1.803,0.43c0.014-0.179,1.258-18.645-6.856-28.885l1.53-1.212    C441.468,267.562,440.064,285.615,439.999,286.377z"/>
		<path style="fill:#000D33;" d="M447.344,284.833l-1.954,0.334c0.011-0.229,1.049-23.629-8.892-32.531l1.301-1.452    C448.438,260.706,447.394,283.85,447.344,284.833z"/>
		<path style="fill:#000D33;" d="M452.426,283.839l-1.803,0.357c0.019-0.19,1.823-19.784-7.046-29.739l1.458-1.296    C454.482,263.767,452.516,283.024,452.426,283.839z"/>
	</g>
	<g>
		<g>
			<path style="fill:#FFBFA5;" d="M394.46,154.408l7.529-72.493L282.799,94.291l19.419,101.161l1.075,7.774l31.225,5.853     c0,0,46.255-13.169,46.062-13.169C380.386,195.909,394.46,154.408,394.46,154.408z"/>
			<g>
				<path style="fill:#52EDDF;" d="M413.139,196.049c0,0-94.135,86.271-124.62-6.222l13.7,5.618l0.72,0.296      c0,0,47.235-65.288,91.521-41.34L413.139,196.049z"/>
				<polygon style="fill:#FFFFFF;" points="330.375,215.557 403.831,196.312 331.224,218.54     "/>
				<polygon style="fill:#FFFFFF;" points="391.125,192.338 347.085,205.493 390.137,189.395     "/>
				<polygon style="fill:#FFFFFF;" points="322.268,189.336 397.618,178.311 322.782,192.396     "/>
			</g>
		</g>
		<g>
			<g>
				<path style="fill:#F50125;" d="M454.141,81.92l-153.5,34.766l7.875,97.083c0,0-86.26,14.431-89.541-84.294      C215.696,30.757,314.748-7.621,379.361,1.235c64.615,8.855,22.957,71.499,22.957,71.499L454.141,81.92z"/>
				<path style="fill:#000D33;" d="M456.902,81.915L292.395,120.11C292.395,120.11,366.716,42.094,456.902,81.915z"/>
			</g>
			<g>
				<path style="fill:#FFB200;" d="M391.335,51.147c-2.352,10.656-11.793,17.827-21.092,16.018      c-9.296-1.81-14.932-11.913-12.58-22.569c2.349-10.653,11.79-17.822,21.089-16.012      C388.048,30.393,393.683,40.497,391.335,51.147z"/>
				<path style="fill:#F50125;" d="M375.842,65.043c0,0-4.088-2.837-6.266-0.631c0,0-3.136-8.226-6.381-7.188      c0,0-0.168-3.535-1.96-3.373c0,0,2.58-9.411,0-10.991c0,0,2.912-3.675,1.625-4.781c0,0,6.378-3.049,5.68-5.993      c0,0,2.77,0.341,3.387-1.011c0,0,6.655,2.645,10.969,0.802c0,0,1.62,4.152,4.585,3.89c0,0,0.07,6.465,2.072,6.677      c0,0-1.514,2.153,0,3.89c0,0-4.7,5.831-3.08,9.142c0,0-3.245,0.687-1.62,3.468C384.854,58.944,375.619,60.943,375.842,65.043z"/>
				<path style="fill:#FFFFFF;" d="M371.534,44.311c0,1-1.416,1.81-3.161,1.81c-1.748,0-3.161-0.81-3.161-1.81      c0-1.005,1.413-1.815,3.161-1.815C370.117,42.496,371.534,43.306,371.534,44.311z"/>
				<path style="fill:#FFFFFF;" d="M375.393,42.127c0,0.726-0.726,1.312-1.62,1.312c-0.899,0-1.628-0.586-1.628-1.312      c0-0.726,0.729-1.315,1.628-1.315C374.667,40.812,375.393,41.401,375.393,42.127z"/>
				<path style="fill:#FFFFFF;" d="M386.197,43.602c0,1.536-1.743,2.784-3.893,2.784c-2.147,0-3.887-1.248-3.887-2.784      c0-1.542,1.74-2.79,3.887-2.79C384.454,40.812,386.197,42.06,386.197,43.602z"/>
				<path style="fill:#FFFFFF;" d="M377.855,54.978c0,1.435-2.331,2.597-5.205,2.597s-5.203-1.162-5.203-2.597      s2.329-2.603,5.203-2.603S377.855,53.543,377.855,54.978z"/>
				<path style="fill:#FFFFFF;" d="M382.304,55.113c0,0.67-0.642,1.212-1.438,1.212c-0.799,0-1.444-0.542-1.444-1.212      c0-0.67,0.645-1.212,1.444-1.212C381.662,53.901,382.304,54.442,382.304,55.113z"/>
				<path style="fill:#FFFFFF;" d="M368.009,50.457c0,0.654-0.882,1.181-1.963,1.181c-1.078,0-1.958-0.528-1.958-1.181      c0-0.653,0.88-1.181,1.958-1.181C367.127,49.276,368.009,49.804,368.009,50.457z"/>
				<path style="fill:#FFFFFF;" d="M376.683,60.262c0,0.961-1.307,1.732-2.913,1.732c-1.605,0-2.91-0.771-2.91-1.732      c0-0.96,1.304-1.731,2.91-1.731C375.376,58.531,376.683,59.301,376.683,60.262z"/>
				<path style="fill:#FFFFFF;" d="M383.954,36.872c0,1.332-2.067,2.418-4.619,2.418c-2.547,0-4.613-1.086-4.613-2.418      c0-1.341,2.066-2.418,4.613-2.418C381.888,34.454,383.954,35.532,383.954,36.872z"/>
				<path style="fill:#FFFFFF;" d="M371.14,39.447c0,0.639-0.913,1.156-2.041,1.156c-1.125,0-2.044-0.517-2.044-1.156      c0-0.64,0.919-1.156,2.044-1.156C370.227,38.291,371.14,38.807,371.14,39.447z"/>
				<path style="fill:#FFFFFF;" d="M382.896,49.486c0,1.19-1.508,2.153-3.356,2.153c-1.86,0-3.359-0.964-3.359-2.153      c0-1.193,1.5-2.153,3.359-2.153C381.388,47.333,382.896,48.293,382.896,49.486z"/>
			</g>
		</g>
		<g>
			<path style="fill:#FF5400;" d="M371.818,143.433c0,18.659-10.72,33.783-23.943,33.783c-13.225,0-23.945-15.124-23.945-33.783     s10.72-33.784,23.945-33.784C361.098,109.65,371.818,124.774,371.818,143.433z"/>
			<path style="fill:#FF5400;" d="M413.141,135.139c0,18.659-10.717,33.778-23.943,33.778c-13.222,0-23.943-15.119-23.943-33.778     c0-18.659,10.721-33.783,23.943-33.783C402.424,101.356,413.141,116.48,413.141,135.139z"/>
			<polygon style="fill:#FF5400;" points="336.518,142.271 222.585,168.917 215.04,143.433 334.754,126.852    "/>
			<path style="fill:#000D33;" d="M363.29,144.182c0,14.554-6.551,26.35-14.63,26.35c-8.079,0-14.627-11.795-14.627-26.35     c0-14.549,6.548-26.35,14.627-26.35C356.739,117.832,363.29,129.633,363.29,144.182z"/>
			<path style="fill:#000D33;" d="M403.831,135.139c0,14.549-6.554,26.344-14.633,26.344s-14.627-11.795-14.627-26.344     c0-14.549,6.548-26.35,14.627-26.35S403.831,120.591,403.831,135.139z"/>
			<polygon style="fill:#FFFFFF;" points="341.065,149.108 339.691,147.722 353.106,134.447 354.48,135.832    "/>
			
				<rect x="337.382" y="149.827" transform="matrix(0.6382 -0.7698 0.7698 0.6382 10.9786 324.9685)" style="fill:#FFFFFF;" width="27.767" height="1.952"/>
			<polygon style="fill:#FFFFFF;" points="382.513,133.009 381.156,131.607 389.953,123.068 391.31,124.469    "/>
			<polygon style="fill:#FFFFFF;" points="381.346,146.106 379.816,144.894 395.627,124.872 397.157,126.083    "/>
			
				<rect x="385.449" y="143.754" transform="matrix(0.6014 -0.7989 0.7989 0.6014 41.0304 371.7026)" style="fill:#FFFFFF;" width="15.203" height="1.95"/>
		</g>
	</g>
</g>















</svg>
